<?xml version="1.0" encoding="iso-8859-1"?>
<!-- Generator: Adobe Illustrator 19.0.0, SVG Export Plug-In . SVG Version: 6.00 Build 0)  -->
<svg version="1.1" id="Layer_1" xmlns="http://www.w3.org/2000/svg" xmlns:xlink="http://www.w3.org/1999/xlink" x="0px" y="0px"
	 viewBox="0 0 512 512" style="enable-background:new 0 0 512 512;" xml:space="preserve">
<g>
	<g>
		<path d="M447.615,235.852l-10.986-10.986c-3.524-3.522-9.235-3.524-12.76,0c-3.524,3.524-3.524,9.237,0,12.76l4.606,4.606
			l-12.445,12.445c-19.984,19.975-52.501,19.976-72.488,0.001l-12.448-12.446l12.449-12.447c15.975-15.976,40.125-19.65,60.098-9.14
			c4.413,2.322,9.867,0.626,12.185-3.783c2.322-4.41,0.627-9.866-3.783-12.186c-26.073-13.721-57.413-9.564-78.987,10.181
			c0.964-12.721-1.9-25.004-11.616-34.721c-3.524-3.522-9.235-3.524-12.76,0c-3.524,3.524-3.524,9.237,0,12.76
			c11.525,11.525,5.693,32.102-1.228,47.334c-3.155,6.945-6.838,13.454-10.212,18.884c-10.91-29.049-31.229-49.039-58.561-57.117
			c-41.27-12.197-93.857,4.469-130.858,41.471c-21.435,21.435-36.135,48.359-42.508,77.862c-6.205,28.722-4.296,58.507,5.524,86.14
			c4.268,11.993,13.007,21.694,24.612,27.317c9.425,4.561,17.974,10.648,25.416,18.1c7.459,7.448,13.549,15.996,18.1,25.403
			c5.607,11.603,15.305,20.345,27.311,24.618c17.015,6.047,34.845,9.095,52.743,9.094c11.165,0,22.359-1.186,33.393-3.57
			c29.502-6.374,56.427-21.073,77.862-42.507c22.612-22.607,38.513-52.404,43.627-81.752c0.855-4.909-2.431-9.582-7.341-10.437
			c-4.905-0.855-9.582,2.43-10.437,7.34c-4.491,25.773-18.564,52.048-38.609,72.09c-18.976,18.977-42.806,31.99-68.913,37.63
			c-25.439,5.496-51.817,3.806-76.28-4.888c-7.503-2.671-13.579-8.164-17.11-15.472c-5.436-11.236-12.703-21.435-21.587-30.307
			c-8.865-8.878-19.065-16.141-30.312-21.582c-7.311-3.543-12.807-9.624-15.474-17.121c-8.694-24.465-10.384-50.844-4.888-76.284
			c5.64-26.105,18.653-49.935,37.63-68.913c32.464-32.464,77.867-47.303,112.984-36.926c26.644,7.875,44.455,29.464,51.505,62.436
			c0.743,3.477,3.46,6.193,6.937,6.937c47.272,10.108,61.283,39.178,64.714,61.786c0.747,4.928,5.359,8.313,10.274,7.567
			c4.927-0.747,8.314-5.347,7.567-10.274c-5.442-35.874-28.598-61.514-65.725-73.282c3.257-4.895,7.115-11.137,10.795-18.183
			l11.155,11.154c13.508,13.503,31.254,20.254,48.999,20.254s35.493-6.752,49.003-20.255l18.826-18.827
			C451.138,245.088,451.138,239.376,447.615,235.852z"/>
	</g>
</g>
<g>
	<g>
		<path d="M130.325,42.366c-4.983,0-9.022,4.04-9.022,9.023v129.137c0,4.984,4.04,9.023,9.022,9.023c4.983,0,9.023-4.04,9.023-9.023
			V51.389C139.348,46.406,135.308,42.366,130.325,42.366z"/>
	</g>
</g>
<g>
	<g>
		<path d="M265.897,28.244c-4.984,0-9.023,4.04-9.023,9.023v18.751c0,4.984,4.039,9.022,9.023,9.022c4.984,0,9.023-4.04,9.023-9.022
			V37.267C274.919,32.284,270.881,28.244,265.897,28.244z"/>
	</g>
</g>
<g>
	<g>
		<path d="M265.897,74.664c-4.984,0-9.023,4.04-9.023,9.023v92.602c0,4.984,4.039,9.024,9.023,9.024c4.984,0,9.023-4.04,9.023-9.023
			V83.687C274.919,78.704,270.881,74.664,265.897,74.664z"/>
	</g>
</g>
<g>
	<g>
		<path d="M198.111,0c-4.983,0-9.023,4.04-9.023,9.023v81.282c0,4.983,4.04,9.023,9.023,9.023s9.023-4.04,9.023-9.023V9.023
			C207.134,4.04,203.094,0,198.111,0z"/>
	</g>
</g>
<g>
	<g>
		<path d="M198.111,107.748c-4.983,0-9.023,4.04-9.023,9.022v28.451c0,4.983,4.04,9.022,9.023,9.022s9.023-4.04,9.023-9.022v-28.451
			C207.134,111.788,203.094,107.748,198.111,107.748z"/>
	</g>
</g>
<g>
</g>
<g>
</g>
<g>
</g>
<g>
</g>
<g>
</g>
<g>
</g>
<g>
</g>
<g>
</g>
<g>
</g>
<g>
</g>
<g>
</g>
<g>
</g>
<g>
</g>
<g>
</g>
<g>
</g>
</svg>
