<?xml version="1.0" encoding="iso-8859-1"?>
<!-- Generator: Adobe Illustrator 19.0.0, SVG Export Plug-In . SVG Version: 6.00 Build 0)  -->
<svg version="1.1" id="Layer_1" xmlns="http://www.w3.org/2000/svg" xmlns:xlink="http://www.w3.org/1999/xlink" x="0px" y="0px"
	 viewBox="0 0 222.695 222.695" style="enable-background:new 0 0 222.695 222.695;" xml:space="preserve">
<g>
	<g>
		<g>
			<path d="M143.376,39.439c0.79,0,1.588-0.225,2.292-0.7c4.67-3.136,9.286-6.031,13.721-8.604c1.966-1.142,2.635-3.663,1.494-5.629
				c-1.146-1.966-3.661-2.642-5.627-1.496c-4.59,2.666-9.36,5.657-14.179,8.894c-1.888,1.266-2.391,3.828-1.122,5.714
				C140.748,38.8,142.051,39.439,143.376,39.439z"/>
			<path d="M203.181,14.985c3.659,0.289,6.484,1.411,8.399,3.329c0.708,0.708,1.307,1.536,1.783,2.465
				c0.73,1.419,2.171,2.236,3.667,2.236c0.633,0,1.275-0.145,1.878-0.455c2.022-1.041,2.821-3.522,1.781-5.545
				c-0.868-1.689-1.974-3.213-3.283-4.52c-3.335-3.345-7.901-5.267-13.57-5.721c-2.328-0.197-4.25,1.516-4.433,3.78
				C199.223,12.817,200.916,14.804,203.181,14.985z"/>
			<path d="M171.904,23.038c0.581,0,1.168-0.121,1.729-0.382c5.295-2.453,10.267-4.359,14.777-5.657
				c2.185-0.631,3.446-2.911,2.817-5.098c-0.633-2.183-2.923-3.446-5.096-2.815c-4.914,1.416-10.281,3.47-15.959,6.099
				c-2.063,0.957-2.961,3.402-2.004,5.468C168.862,22.154,170.349,23.038,171.904,23.038z"/>
			<path d="M117.018,59.185c0.923,0,1.849-0.31,2.616-0.941c4.264-3.514,8.569-6.904,12.794-10.076
				c1.817-1.367,2.185-3.948,0.818-5.766c-1.361-1.817-3.942-2.183-5.764-0.82c-4.324,3.249-8.725,6.715-13.084,10.309
				c-1.755,1.444-2.006,4.041-0.561,5.794C114.651,58.675,115.829,59.185,117.018,59.185z"/>
			<path d="M37.391,210.85c-5.768,0.8-10.293,0.266-13.365-1.552c-1.958-1.15-4.485-0.506-5.639,1.451
				c-1.158,1.958-0.508,4.483,1.45,5.641c3.432,2.027,7.698,3.056,12.68,3.056c1.878,0,3.898-0.149,6.009-0.442
				c2.252-0.31,3.824-2.393,3.512-4.644C41.722,212.109,39.639,210.504,37.391,210.85z"/>
			<path d="M94.352,182.99c-4.572,3.249-9.109,6.285-13.49,9.027c-1.926,1.206-2.511,3.748-1.305,5.673
				c0.782,1.25,2.123,1.934,3.494,1.934c0.746,0,1.502-0.201,2.181-0.627c4.513-2.827,9.187-5.955,13.888-9.292
				c1.854-1.319,2.29-3.888,0.973-5.742C98.775,182.114,96.208,181.671,94.352,182.99z"/>
			<path d="M66.87,200.091c-5.101,2.67-9.991,4.905-14.537,6.65c-2.125,0.812-3.184,3.197-2.37,5.32
				c0.627,1.637,2.189,2.642,3.844,2.642c0.49,0,0.989-0.089,1.474-0.273c4.843-1.858,10.028-4.226,15.41-7.044
				c2.015-1.054,2.792-3.543,1.739-5.557C71.375,199.817,68.89,199.029,66.87,200.091z"/>
			<path d="M143.901,140.715c-3.868,3.86-7.825,7.668-11.761,11.318c-1.667,1.548-1.765,4.154-0.219,5.818
				c0.812,0.877,1.914,1.319,3.02,1.319c1.003,0,2.006-0.362,2.801-1.098c4.009-3.719,8.037-7.595,11.978-11.528
				c1.608-1.608,1.612-4.214,0.006-5.822C148.12,139.107,145.513,139.115,143.901,140.715z"/>
			<path d="M119.969,162.89c-4.174,3.578-8.41,7.06-12.591,10.35c-1.787,1.407-2.097,3.997-0.692,5.782
				c0.814,1.033,2.02,1.572,3.239,1.572c0.893,0,1.789-0.289,2.543-0.881c4.272-3.361,8.599-6.916,12.86-10.567
				c1.725-1.48,1.926-4.081,0.446-5.806C124.295,161.607,121.7,161.414,119.969,162.89z"/>
			<path d="M209.042,62.113c-2.008-1.07-4.504-0.298-5.565,1.713c-2.374,4.483-5.108,9.184-8.126,13.968
				c-1.214,1.922-0.637,4.463,1.285,5.677c0.681,0.43,1.441,0.635,2.193,0.635c1.367,0,2.704-0.679,3.486-1.922
				c3.128-4.958,5.967-9.839,8.44-14.507C211.818,65.667,211.052,63.178,209.042,62.113z"/>
			<path d="M192.027,90.301c-1.853-1.325-4.42-0.891-5.743,0.954c-3.042,4.254-6.333,8.633-9.787,13.007
				c-1.407,1.785-1.104,4.375,0.681,5.782c0.756,0.595,1.655,0.884,2.549,0.884c1.216,0,2.423-0.539,3.235-1.568
				c3.532-4.475,6.904-8.954,10.02-13.313C194.305,94.193,193.877,91.624,192.027,90.301z"/>
			<path d="M166.122,116.828c-3.504,4.065-7.165,8.154-10.882,12.147c-1.55,1.665-1.455,4.27,0.209,5.822
				c0.792,0.736,1.799,1.102,2.805,1.102c1.102,0,2.204-0.442,3.013-1.311c3.79-4.073,7.521-8.239,11.095-12.388
				c1.484-1.721,1.291-4.322-0.432-5.806C170.209,114.914,167.609,115.107,166.122,116.828z"/>
			<path d="M219.216,30.947c-2.238-0.322-4.35,1.182-4.706,3.43c-0.694,4.411-2.139,9.437-4.296,14.937
				c-0.83,2.119,0.215,4.507,2.332,5.336c0.492,0.193,1.001,0.285,1.5,0.285c1.644,0,3.199-0.993,3.836-2.614
				c2.374-6.059,3.977-11.668,4.762-16.666C222.998,33.408,221.462,31.301,219.216,30.947z"/>
			<path d="M18.689,197.376c0-3.84,0.778-8.383,2.314-13.51c0.651-2.179-0.585-4.475-2.762-5.126
				c-2.169-0.643-4.471,0.583-5.126,2.762c-1.765,5.894-2.66,11.234-2.66,15.89c0.002,0.579,0.016,1.142,0.042,1.697
				c0.109,2.204,1.928,3.916,4.109,3.916c0.068,0,0.137,0,0.205-0.004c2.272-0.112,4.023-2.043,3.912-4.315
				C18.701,198.253,18.691,197.811,18.689,197.376z"/>
			<path d="M32.856,149.26c-1.97-1.154-4.487-0.49-5.633,1.476c-3.01,5.138-5.663,10.145-7.889,14.873
				c-0.969,2.059-0.084,4.511,1.972,5.481c0.567,0.266,1.162,0.39,1.751,0.39c1.544,0,3.026-0.872,3.727-2.364
				c2.121-4.507,4.66-9.292,7.543-14.222C35.478,152.931,34.818,150.41,32.856,149.26z"/>
			<path d="M37.265,142.303c0.708,0.478,1.51,0.708,2.304,0.708c1.321,0,2.617-0.635,3.414-1.81
				c2.929-4.331,6.114-8.777,9.467-13.217c1.369-1.813,1.009-4.399-0.806-5.766c-1.817-1.383-4.403-1.013-5.768,0.804
				c-3.436,4.552-6.705,9.115-9.712,13.562C34.888,138.472,35.383,141.029,37.265,142.303z"/>
			<path d="M105.11,150.952c-4.212,3.659-8.426,7.173-12.519,10.454c-1.775,1.419-2.063,4.013-0.641,5.786
				c0.814,1.017,2.01,1.544,3.216,1.544c0.903,0,1.811-0.294,2.571-0.905c4.179-3.345,8.476-6.932,12.772-10.663
				c1.717-1.492,1.9-4.089,0.408-5.806C109.426,149.642,106.829,149.453,105.11,150.952z"/>
			<path d="M68.384,187.891c0.732,0,1.476-0.197,2.145-0.607c4.357-2.666,9.049-5.806,13.944-9.336
				c1.844-1.331,2.262-3.904,0.931-5.75c-1.327-1.845-3.9-2.256-5.748-0.933c-4.728,3.414-9.246,6.437-13.425,8.998
				c-1.94,1.186-2.549,3.719-1.363,5.661C65.645,187.192,66.999,187.891,68.384,187.891z"/>
			<path d="M165.311,99.329c1.188,0,2.368-0.511,3.182-1.504c3.675-4.471,7.139-8.878,10.295-13.104
				c1.363-1.821,0.989-4.403-0.832-5.762c-1.824-1.367-4.401-0.989-5.762,0.832c-3.082,4.126-6.467,8.432-10.062,12.806
				c-1.444,1.757-1.19,4.35,0.567,5.794C163.466,99.024,164.391,99.329,165.311,99.329z"/>
			<path d="M172.999,42.652c1.99-1.098,2.714-3.603,1.614-5.593c-1.102-1.99-3.609-2.718-5.595-1.612
				c-4.407,2.433-9.222,5.428-14.312,8.91c-1.878,1.283-2.358,3.844-1.075,5.721c0.798,1.166,2.089,1.793,3.404,1.793
				c0.8,0,1.608-0.233,2.32-0.72C164.228,47.823,168.819,44.96,172.999,42.652z"/>
			<path d="M57.61,189.846c-0.87-2.099-3.279-3.1-5.378-2.227c-8.074,3.337-10.653,2.79-11.705,1.994
				c-1.81-1.387-4.395-1.033-5.77,0.776c-1.379,1.81-1.031,4.391,0.776,5.77c1.888,1.439,4.312,2.171,7.211,2.171
				c3.468-0.004,7.601-1.021,12.635-3.104C57.481,194.357,58.481,191.949,57.61,189.846z"/>
			<path d="M67.029,132.638c-1.779-1.411-4.371-1.126-5.786,0.66c-3.631,4.564-7.014,9.043-10.058,13.313
				c-1.319,1.85-0.889,4.419,0.963,5.742c0.726,0.515,1.56,0.764,2.386,0.764c1.287,0,2.553-0.599,3.357-1.729
				c2.96-4.149,6.256-8.512,9.797-12.967C69.104,136.642,68.808,134.053,67.029,132.638z"/>
			<path d="M36.527,181.249c0.49,0.189,0.993,0.278,1.488,0.278c1.651,0,3.207-0.997,3.84-2.63
				c1.554-4.017,3.956-8.741,7.139-14.041c1.17-1.95,0.539-4.479-1.411-5.649c-1.952-1.174-4.479-0.543-5.649,1.411
				c-3.424,5.702-6.033,10.852-7.758,15.303C33.355,178.044,34.408,180.429,36.527,181.249z"/>
			<path d="M189.515,52.708c-2.041,4.137-4.737,8.79-8.014,13.823c-1.238,1.906-0.7,4.455,1.206,5.693
				c0.694,0.45,1.472,0.667,2.241,0.667c1.347,0,2.666-0.66,3.456-1.874c3.452-5.303,6.311-10.241,8.496-14.668
				c1.005-2.038,0.169-4.507-1.872-5.513C192.985,49.825,190.522,50.665,189.515,52.708z"/>
			<path d="M143.463,123.977c1.089,0,2.177-0.43,2.988-1.283c3.906-4.121,7.656-8.207,11.234-12.235
				c1.508-1.701,1.355-4.302-0.346-5.814c-1.703-1.508-4.306-1.355-5.814,0.346c-3.518,3.965-7.207,7.986-11.049,12.034
				c-1.564,1.653-1.496,4.258,0.155,5.822C141.426,123.603,142.445,123.977,143.463,123.977z"/>
			<path d="M146.984,54.94c-1.391-1.797-3.979-2.123-5.774-0.744c-4.22,3.257-8.576,6.779-12.951,10.466
				c-1.739,1.467-1.96,4.065-0.494,5.802c0.814,0.965,1.978,1.464,3.15,1.464c0.937,0,1.88-0.317,2.652-0.969
				c4.284-3.611,8.548-7.057,12.673-10.241C148.042,59.326,148.374,56.741,146.984,54.94z"/>
			<path d="M129.042,128.705c-3.949,3.912-7.887,7.692-11.791,11.327c-1.663,1.548-1.757,4.154-0.207,5.818
				c0.81,0.868,1.912,1.311,3.013,1.311c1.005,0,2.013-0.366,2.806-1.106c3.965-3.691,7.963-7.527,11.972-11.496
				c1.616-1.6,1.628-4.21,0.028-5.826C133.268,127.121,130.658,127.113,129.042,128.705z"/>
			<path d="M182.113,33.577c0.557,2.204,2.787,3.538,5.002,2.983c3.074-0.78,5.579-0.732,6.29-0.028
				c0.37,0.374,0.573,1.194,0.573,2.4c0,2.276,1.844,4.077,4.117,4.077s4.117-1.886,4.117-4.161c0-3.414-1.003-6.152-2.985-8.138
				c-3.01-3.004-7.746-3.743-14.135-2.135C182.888,29.134,181.554,31.374,182.113,33.577z"/>
			<path d="M88.522,126.767c19.298,0,34.997-15.701,34.997-34.997c0-19.296-15.699-34.997-34.997-34.997
				c-19.298,0-34.997,15.701-34.997,34.997C53.525,111.066,69.224,126.767,88.522,126.767z M88.522,65.008
				c14.756,0,26.762,12.006,26.762,26.762c0,14.756-12.006,26.762-26.762,26.762c-14.756,0-26.762-12.006-26.762-26.762
				C61.76,77.014,73.766,65.008,88.522,65.008z"/>
			<path d="M45.29,25.893c0-12.484-10.159-22.645-22.645-22.645C10.159,3.248,0,13.409,0,25.893s10.159,22.645,22.645,22.645
				C35.131,48.538,45.29,38.378,45.29,25.893z M8.235,25.893c0-7.945,6.465-14.411,14.411-14.411s14.411,6.465,14.411,14.411
				S30.59,40.304,22.645,40.304S8.235,33.838,8.235,25.893z"/>
		</g>
	</g>
</g>
<g>
</g>
<g>
</g>
<g>
</g>
<g>
</g>
<g>
</g>
<g>
</g>
<g>
</g>
<g>
</g>
<g>
</g>
<g>
</g>
<g>
</g>
<g>
</g>
<g>
</g>
<g>
</g>
<g>
</g>
</svg>
