<?xml version="1.0" encoding="iso-8859-1"?>
<!-- Generator: Adobe Illustrator 19.0.0, SVG Export Plug-In . SVG Version: 6.00 Build 0)  -->
<svg version="1.1" id="Layer_1" xmlns="http://www.w3.org/2000/svg" xmlns:xlink="http://www.w3.org/1999/xlink" x="0px" y="0px"
	 viewBox="0 0 501.23 501.23" style="enable-background:new 0 0 501.23 501.23;" xml:space="preserve">
<g>
	<g>
		<path d="M487.771,13.762c-24.533-24.533-70.4-16-137.6,23.467c-33.067-16-68.267-24.533-105.6-24.533
			c-65.067,0-126.933,25.6-172.8,71.467c-45.867,45.867-71.467,107.733-71.467,172.8c0,65.067,25.6,126.933,71.467,172.8
			c45.867,45.867,107.733,71.467,172.8,71.467c65.067,0,126.933-25.6,172.8-71.467c45.867-45.867,71.467-107.733,71.467-172.8
			c0-37.333-8.533-72.533-24.533-105.6C499.504,91.629,513.371,39.363,487.771,13.762z M386.438,397.762
			c-37.333,37.333-88.533,58.667-141.867,58.667c-53.333,0-103.467-20.267-141.867-58.667
			c-37.333-37.333-58.667-88.533-58.667-141.867s21.333-104.533,58.667-141.867c37.333-37.333,88.533-58.667,141.867-58.667
			c53.333,0,104.533,21.333,141.867,58.667c10.667,10.667,20.267,23.467,28.8,36.267c-27.733,41.6-68.267,93.867-125.867,151.467
			c-14.933,14.933-29.867,28.8-44.8,41.6v-23.467c0-11.733-9.6-21.333-21.333-21.333s-21.333,9.6-21.333,21.333v73.6
			c0,11.733,9.6,21.333,21.333,21.333h73.6c11.733,0,21.333-9.6,21.333-21.333c0-11.733-9.6-21.333-21.333-21.333h-20.267
			c13.867-12.8,28.8-26.667,42.667-40.533c42.667-42.667,84.267-90.667,116.267-136.533c6.4,20.267,9.6,40.533,9.6,60.8
			C445.105,309.229,424.838,359.363,386.438,397.762z M439.771,109.763c-6.4-8.533-13.867-18.133-22.4-25.6
			c-7.467-7.467-16-14.933-24.533-21.333c44.8-22.4,61.867-21.334,65.067-18.133C463.238,50.029,458.971,73.496,439.771,109.763z"/>
	</g>
</g>
<g>
</g>
<g>
</g>
<g>
</g>
<g>
</g>
<g>
</g>
<g>
</g>
<g>
</g>
<g>
</g>
<g>
</g>
<g>
</g>
<g>
</g>
<g>
</g>
<g>
</g>
<g>
</g>
<g>
</g>
</svg>
